<svg fill="none" version="1.1" viewBox="0 0 79.279 100" xmlns="http://www.w3.org/2000/svg">
 <path d="m25.785 85.175c-4.5177-4.13-5.8365-12.807-3.9543-19.093 3.2636 3.963 7.7855 5.219 12.469 5.927 7.2308 1.094 14.332 0.685 21.049-2.62 0.7684-0.378 1.4785-0.882 2.3182-1.391 0.6302 1.828 0.7943 3.674 0.5741 5.553-0.5353 4.576-2.8125 8.111-6.4344 10.79-1.4483 1.072-2.9808 2.03-4.4766 3.041-4.5954 3.105-5.8386 6.747-4.1119 12.045 0.041 0.129 0.0777 0.258 0.1706 0.573-2.3463-1.05-4.0601-2.579-5.366-4.589-1.3792-2.122-2.0354-4.469-2.0699-7.008-0.0173-1.236-0.0173-2.483-0.1835-3.701-0.4058-2.97-1.8002-4.3-4.427-4.377-2.6959-0.078-4.8285 1.588-5.394 4.213-0.0432 0.201-0.1058 0.4-0.1683 0.634z" fill="#fff"/>
 <path d="m25.785 85.175c-4.5177-4.13-5.8365-12.807-3.9543-19.093 3.2636 3.963 7.7855 5.219 12.469 5.927 7.2308 1.094 14.332 0.685 21.049-2.62 0.7684-0.378 1.4785-0.882 2.3182-1.391 0.6302 1.828 0.7943 3.674 0.5741 5.553-0.5353 4.576-2.8125 8.111-6.4344 10.79-1.4483 1.072-2.9808 2.03-4.4766 3.041-4.5954 3.105-5.8386 6.747-4.1119 12.045 0.041 0.129 0.0777 0.258 0.1706 0.573-2.3463-1.05-4.0601-2.579-5.366-4.589-1.3792-2.122-2.0354-4.469-2.0699-7.008-0.0173-1.236-0.0173-2.483-0.1835-3.701-0.4058-2.97-1.8002-4.3-4.427-4.377-2.6959-0.078-4.8285 1.588-5.394 4.213-0.0432 0.201-0.1058 0.4-0.1683 0.634z" fill="url(#a)"/>
 <path d="m0 65.034s13.378-6.5163 26.792-6.5163l10.114-31.302c0.3787-1.5138 1.4843-2.5426 2.7325-2.5426s2.3539 1.0288 2.7326 2.5426l10.114 31.302c15.888 0 26.793 6.5163 26.793 6.5163s-22.723-61.901-22.768-62.025c-0.6522-1.8301-1.7531-3.0088-3.2374-3.0088h-27.267c-1.4843 0-2.5408 1.1787-3.2374 3.0088-0.0491 0.1219-22.77 62.025-22.77 62.025z" fill="#fff"/>
 <defs>
  <linearGradient id="a" x1="61" x2="104.62" y1="136" y2="115.39" gradientTransform="translate(-40,-36)" gradientUnits="userSpaceOnUse">
   <stop stop-color="#D83333" offset="0"/>
   <stop stop-color="#F041FF" offset="1"/>
  </linearGradient>
 </defs>
</svg>
