<svg version="1.1" viewBox="0 0 187.31 238.45" xmlns="http://www.w3.org/2000/svg">
 <defs>
  <linearGradient id="a" x1="513.06" x2="513.06" y1="711.19" y2="815.38" gradientUnits="userSpaceOnUse">
   <stop stop-color="#ffb347" offset="0"/>
   <stop stop-color="#f26430" offset=".42987"/>
   <stop stop-color="#b91c1c" offset="1"/>
  </linearGradient>
 </defs>
 <g transform="translate(-1320.7 -90.143)">
  <g transform="matrix(.4006 .20488 -.20488 .4006 1341.3 34.349)">
   <g transform="matrix(.97671 .18602 -.18602 .97671 -82.822 -324.44)">
    <path d="m520.75 617.74c-4e-3 -24.296-0.1341-48.123 0.0941-71.946 0.0473-4.9347-1.1721-6.7927-6.3837-6.5662-10.054 0.43708-9.195-0.99939-9.2061 9.1233-0.0249 22.659-0.11893 45.32 0.11239 67.977 0.0509 4.9828-1.4877 6.7891-6.5178 6.7193-16.492-0.22894-32.989-0.20905-49.482-0.0748-3.9229 0.0319-5.9442-1.2524-7.2356-5.111-11.377-33.992-19.751-68.699-25.506-104.07-5.0908-31.288-7.6427-62.757-6.8804-94.453 0.86267-35.871 7.4893-70.699 19.35-104.56 1.291-3.6857 3.2331-5.1434 7.2708-5.1342 51.15 0.11664 102.3 0.10882 153.45-0.0239 4.0096-0.0104 5.9548 1.3097 7.2303 5.084 9.5696 28.32 16.371 57.173 18.376 87.112 2.8986 43.281-0.44843 86.108-8.5269 128.64-5.5953 29.458-13.015 58.436-22.581 86.871-1.3913 4.1354-3.3418 5.7795-7.8127 5.7145-16.658-0.24224-33.321-0.11505-49.982-0.0898-3.2912 5e-3 -6.1688-0.33167-5.7689-5.2131m-27.544-144.46c5.0146 1.8946 10.222 3.0284 15.546 3.3563 36.915 2.2736 65.593-28.26 64.315-62.181-1.3918-36.937-36.92-65.032-72.928-56.579-25.363 5.9541-44.907 27.546-46.794 51.695-2.2855 29.261 12.349 52.969 39.86 63.708z" fill="#fff"/>
    <path d="m561.02 240.03c11.028 18.57 21.355 37.082 29.338 57.725h-154.8c19.155-45.501 45.424-85.398 77.476-122.65 18.051 20.621 33.685 42.047 47.986 64.923z" fill="#fff"/>
    <path d="m486.67 696.8c-2.9064 10.563-1.3794 20.531 1.544 30.38 5.0769 17.104 13.812 32.431 23.282 47.385 0.3338 0.52704 0.92303 0.8924 1.3396 1.2828 0.47625-0.16528 0.92364-0.17664 1.0591-0.388 11.459-17.875 21.892-36.264 26.188-57.362 1.856-9.1136 1.6744-18.216-3.0322-26.744-3.0096-5.4536-7.0516-9.6514-12.953-11.892-1.0541-0.40008-2.3173-0.49762-2.8394-2.0889 1.7284-1.1564 3.4272-0.2796 5.0697 0.1449 20.377 5.267 35.01 22.155 38.074 43.025 2.4822 16.911-1.5212 32.771-6.8215 48.457-9.6924 28.683-25.388 54.205-42.239 79.087-0.55249 0.81586-1.1668 1.6496-2.3238 1.6843-1.1626-0.0822-1.6912-0.98254-2.2416-1.7972-16.357-24.209-31.591-49.027-41.487-76.729-4.2175-11.805-7.596-23.862-8.226-36.415-1.3618-27.136 11.643-50.652 40.354-57.584 1.1131-0.26874 2.2292-0.80127 4.0982 0.61456-8.9046 3.7952-15.862 9.2512-18.845 18.939z" fill="url(#a)"/>
    <g fill="#fff">
     <path d="m423.89 629.93c-18.595 13.471-36.9 26.733-55.002 39.847-2.7302-1.4623-2.0051-3.5099-2.0072-5.1978-0.0414-33.813-0.0212-67.626-0.0469-101.44-2e-3 -2.7404 0.21079-5.1825 2.594-7.1578 11.154-9.2453 22.208-18.612 33.322-27.905 0.86811-0.72596 1.9274-1.2232 3.1512-1.9843 2.4124 3.7825 2.4393 8.022 3.1946 11.944 5.0083 26.005 11.82 51.519 20.08 76.672 3.5004 10.66 4.6507 7.9348-5.2857 15.221z"/>
     <path d="m632.41 535.57c8.1764 6.8684 16.056 13.536 23.995 20.132 1.9294 1.603 2.8879 3.4149 2.8834 5.9982-0.0602 34.802-0.0462 69.604-0.0708 104.41-7.9e-4 1.118 0.22168 2.361-0.98016 3.2773-2.051 0.42041-3.2559-1.2371-4.6595-2.2508-18.488-13.355-36.924-26.783-55.427-40.118-2.5371-1.8284-4.0265-3.534-2.8373-7.0086 10.192-29.779 18.04-60.174 23.643-91.15 0.13824-0.76422 0.67114-1.457 1.2579-2.6781 4.7023 2.4254 7.9622 6.2811 12.195 9.3904z"/>
     <path d="m481 661.36c-9.4142-1.9e-4 -18.328-1.9e-4 -27.965-1.9e-4 2.8014-9.4089 6.3528-17.428 10.039-25.36 1.1182-2.4061 4.1429-1.7487 6.378-1.8205 9.6367-0.30982 19.281 0.0921 28.918 0.12072 18.622 0.0552 37.238 0.36072 55.861-0.14416 8.4092-0.22803 8.397-0.0417 11.471 7.6213 2.457 6.1258 4.9623 12.232 7.9483 19.583-31.479 0-61.814 0-92.649-1.8e-4z"/>
     <path d="m501.83 448.98c-3.6249-3.3272-4.7537-10.355-3.1635-15.417 2.6426 3.1754 6.269 4.2358 10.047 4.7672 5.8179 0.91062 11.561 0.61219 17.003-2.1045l1.8898-1.0567c0.52796 1.5116 0.67813 2.9475 0.45042 4.4586a12.09 12.09 0 0 1-5.2197 8.6864c-1.134 0.90601-2.4192 1.6608-3.6288 2.4912-3.7043 2.4912-4.6885 5.4375-3.3313 9.7456l0.1508 0.4535a9.8234 9.8234 0 0 1-4.3046-3.7811 10.428 10.428 0 0 1-1.6587-5.5928c6.3e-4 -0.98234 1e-3 -2.0402-0.14914-3.0227-0.37624-2.3428-1.5089-3.477-3.6247-3.5539a4.156 4.156 0 0 0-4.3095 3.4731zm-20.845-16.26s10.809-5.2824 21.69-5.2751l8.1778-25.309c0.30308-1.2088 1.2104-2.0394 2.2683-2.0387 0.90677 6.2e-4 1.8129 0.83243 2.1144 2.0416l8.2197 25.319c12.846 9e-3 21.608 5.3038 21.608 5.3038l-18.329-50.187c-0.52791-1.5117-1.5096-2.4191-2.6431-2.4198l-22.065-0.0146c-1.209-1e-3 -2.0409 0.98097-2.5708 2.4164z" stroke-width=".75565"/>
    </g>
   </g>
  </g>
 </g>
</svg>
